# This file uses centimeters as units for non-parametric coordinates.

mtllib Stage4.mtl
g default
v -2.500000 -0.250000 2.500000
v -0.833333 -0.250000 2.500000
v 0.833333 -0.250000 2.500000
v 2.500000 -0.250000 2.500000
v -2.500000 0.250000 2.500000
v -0.833333 0.250000 2.500000
v 0.833333 0.250000 2.500000
v 2.500000 0.250000 2.500000
v -2.500000 0.250000 0.833333
v -0.833333 0.250000 0.833333
v 0.833333 0.250000 0.833333
v 2.500000 0.250000 0.833333
v -2.500000 0.250000 -0.833333
v -0.833333 0.250000 -0.833333
v 0.833333 0.250000 -0.833333
v 2.500000 0.250000 -0.833333
v -2.500000 0.250000 -2.500000
v -0.833333 0.250000 -2.500000
v 0.833333 0.250000 -2.500000
v 2.500000 0.250000 -2.500000
v -2.500000 -0.250000 -2.500000
v -0.833333 -0.250000 -2.500000
v 0.833333 -0.250000 -2.500000
v 2.500000 -0.250000 -2.500000
v -2.500000 -0.250000 -0.833333
v -0.833333 -0.250000 -0.833333
v 0.833333 -0.250000 -0.833333
v 2.500000 -0.250000 -0.833333
v -2.500000 -0.250000 0.833333
v -0.833333 -0.250000 0.833333
v 0.833333 -0.250000 0.833333
v 2.500000 -0.250000 0.833333
vt 0.375000 0.000000
vt 0.458333 0.000000
vt 0.541667 0.000000
vt 0.625000 0.000000
vt 0.375000 0.250000
vt 0.458333 0.250000
vt 0.541667 0.250000
vt 0.625000 0.250000
vt 0.375000 0.333333
vt 0.458333 0.333333
vt 0.541667 0.333333
vt 0.625000 0.333333
vt 0.375000 0.416667
vt 0.458333 0.416667
vt 0.541667 0.416667
vt 0.625000 0.416667
vt 0.375000 0.500000
vt 0.458333 0.500000
vt 0.541667 0.500000
vt 0.625000 0.500000
vt 0.375000 0.750000
vt 0.458333 0.750000
vt 0.541667 0.750000
vt 0.625000 0.750000
vt 0.375000 0.833333
vt 0.458333 0.833333
vt 0.541667 0.833333
vt 0.625000 0.833333
vt 0.375000 0.916667
vt 0.458333 0.916667
vt 0.541667 0.916667
vt 0.625000 0.916667
vt 0.375000 1.000000
vt 0.458333 1.000000
vt 0.541667 1.000000
vt 0.625000 1.000000
vt 0.875000 0.000000
vt 0.791667 0.000000
vt 0.708333 0.000000
vt 0.875000 0.250000
vt 0.791667 0.250000
vt 0.708333 0.250000
vt 0.125000 0.000000
vt 0.208333 0.000000
vt 0.291667 0.000000
vt 0.125000 0.250000
vt 0.208333 0.250000
vt 0.291667 0.250000
vn 0.000000 0.000000 1.000000
vn 0.000000 0.000000 1.000000
vn 0.000000 0.000000 1.000000
vn 0.000000 0.000000 1.000000
vn 0.000000 0.000000 1.000000
vn 0.000000 0.000000 1.000000
vn 0.000000 0.000000 1.000000
vn 0.000000 0.000000 1.000000
vn 0.000000 1.000000 0.000000
vn 0.000000 1.000000 0.000000
vn 0.000000 1.000000 0.000000
vn 0.000000 1.000000 0.000000
vn 0.000000 1.000000 0.000000
vn 0.000000 1.000000 0.000000
vn 0.000000 1.000000 0.000000
vn 0.000000 1.000000 0.000000
vn 0.000000 1.000000 0.000000
vn 0.000000 1.000000 0.000000
vn 0.000000 1.000000 0.000000
vn 0.000000 1.000000 0.000000
vn 0.000000 1.000000 0.000000
vn 0.000000 1.000000 0.000000
vn 0.000000 1.000000 0.000000
vn 0.000000 1.000000 0.000000
vn 0.000000 0.000000 -1.000000
vn 0.000000 0.000000 -1.000000
vn 0.000000 0.000000 -1.000000
vn 0.000000 0.000000 -1.000000
vn 0.000000 0.000000 -1.000000
vn 0.000000 0.000000 -1.000000
vn 0.000000 0.000000 -1.000000
vn 0.000000 0.000000 -1.000000
vn 0.000000 -1.000000 0.000000
vn 0.000000 -1.000000 0.000000
vn 0.000000 -1.000000 0.000000
vn 0.000000 -1.000000 0.000000
vn 0.000000 -1.000000 0.000000
vn 0.000000 -1.000000 0.000000
vn 0.000000 -1.000000 0.000000
vn 0.000000 -1.000000 0.000000
vn 0.000000 -1.000000 0.000000
vn 0.000000 -1.000000 0.000000
vn 0.000000 -1.000000 0.000000
vn 0.000000 -1.000000 0.000000
vn 0.000000 -1.000000 0.000000
vn 0.000000 -1.000000 0.000000
vn 0.000000 -1.000000 0.000000
vn 0.000000 -1.000000 0.000000
vn 1.000000 0.000000 0.000000
vn 1.000000 0.000000 0.000000
vn 1.000000 0.000000 0.000000
vn 1.000000 0.000000 0.000000
vn 1.000000 0.000000 0.000000
vn 1.000000 0.000000 0.000000
vn 1.000000 0.000000 0.000000
vn 1.000000 0.000000 0.000000
vn -1.000000 0.000000 0.000000
vn -1.000000 0.000000 0.000000
vn -1.000000 0.000000 0.000000
vn -1.000000 0.000000 0.000000
vn -1.000000 0.000000 0.000000
vn -1.000000 0.000000 0.000000
vn -1.000000 0.000000 0.000000
vn -1.000000 0.000000 0.000000
s off
usemtl initialShadingGroup
f 1/1/1 2/2/2 5/5/3
f 5/5/3 2/2/2 6/6/4
f 2/2/2 3/3/5 6/6/4
f 6/6/4 3/3/5 7/7/6
f 3/3/5 4/4/7 7/7/6
f 7/7/6 4/4/7 8/8/8
f 5/5/9 6/6/10 9/9/11
f 9/9/11 6/6/10 10/10/12
f 6/6/10 7/7/13 10/10/12
f 10/10/12 7/7/13 11/11/14
f 7/7/13 8/8/15 11/11/14
f 11/11/14 8/8/15 12/12/16
f 10/10/12 11/11/14 14/14/17
f 14/14/17 11/11/14 15/15/18
f 11/11/14 12/12/16 15/15/18
f 15/15/18 12/12/16 16/16/19
f 13/13/20 14/14/17 17/17/21
f 17/17/21 14/14/17 18/18/22
f 14/14/17 15/15/18 18/18/22
f 18/18/22 15/15/18 19/19/23
f 15/15/18 16/16/19 19/19/23
f 19/19/23 16/16/19 20/20/24
f 17/17/25 18/18/26 21/21/27
f 21/21/27 18/18/26 22/22/28
f 18/18/26 19/19/29 22/22/28
f 22/22/28 19/19/29 23/23/30
f 19/19/29 20/20/31 23/23/30
f 23/23/30 20/20/31 24/24/32
f 21/21/33 22/22/34 25/25/35
f 25/25/35 22/22/34 26/26/36
f 22/22/34 23/23/37 26/26/36
f 26/26/36 23/23/37 27/27/38
f 23/23/37 24/24/39 27/27/38
f 27/27/38 24/24/39 28/28/40
f 26/26/36 27/27/38 30/30/41
f 30/30/41 27/27/38 31/31/42
f 27/27/38 28/28/40 31/31/42
f 31/31/42 28/28/40 32/32/43
f 29/29/44 30/30/41 1/33/45
f 1/33/45 30/30/41 2/34/46
f 30/30/41 31/31/42 2/34/46
f 2/34/46 31/31/42 3/35/47
f 31/31/42 32/32/43 3/35/47
f 3/35/47 32/32/43 4/36/48
f 28/38/49 24/37/50 16/41/51
f 16/41/51 24/37/50 20/40/52
f 32/39/53 28/38/49 12/42/54
f 12/42/54 28/38/49 16/41/51
f 4/4/55 32/39/53 8/8/56
f 8/8/56 32/39/53 12/42/54
f 21/43/57 25/44/58 17/46/59
f 17/46/59 25/44/58 13/47/60
f 29/45/61 1/1/62 9/48/63
f 9/48/63 1/1/62 5/5/64
